HIERARCHY
ROOT Hips
{
	OFFSET 0.000000 0.000000 0.000000
	CHANNELS 6 Xposition Yposition Zposition Zrotation Yrotation Xrotation 
	JOINT LeftUpLeg_virtual
	{
		OFFSET 0.000000 0.000000 0.000000
		CHANNELS 3 Zrotation Yrotation Xrotation
		JOINT LeftUpLeg
		{
			OFFSET 10.205400 -3.823500 0.155100
			CHANNELS 3 Zrotation Yrotation Xrotation
			JOINT LeftLeg
			{
				OFFSET 0.708757 -12.982077 0.567790
				CHANNELS 3 Zrotation Yrotation Xrotation
				JOINT LeftFoot
				{
					OFFSET -0.708756 -10.717838 -2.184338
					CHANNELS 3 Zrotation Yrotation Xrotation
					JOINT LeftToeBase
					{
						OFFSET 0.108149 -7.191104 7.560241
						CHANNELS 3 Zrotation Yrotation Xrotation
						End Site
						{
							OFFSET 0.000000 0.000000 0.000000
						}
					}
				}
			}
		}
	}
	JOINT RightUpLeg_virtual
	{
		OFFSET 0.000000 0.000000 0.000000
		CHANNELS 3 Zrotation Yrotation Xrotation
		JOINT RightUpLeg
		{
			OFFSET -10.205400 -3.823500 0.005500
			CHANNELS 3 Zrotation Yrotation Xrotation
			JOINT RightLeg
			{
				OFFSET -0.708756 -12.982134 0.610632
				CHANNELS 3 Zrotation Yrotation Xrotation
				JOINT RightFoot
				{
					OFFSET 0.708754 -10.717769 -1.945823
					CHANNELS 3 Zrotation Yrotation Xrotation
					JOINT RightToeBase
					{
						OFFSET -0.108140 -7.191069 7.372968
						CHANNELS 3 Zrotation Yrotation Xrotation
						End Site
						{
							OFFSET 0.000000 0.000000 0.000000
						}
					}
				}
			}
		}
	}
	JOINT Spine_virtual
	{
		OFFSET 0.000000 0.000000 0.000000
		CHANNELS 3 Zrotation Yrotation Xrotation
		JOINT Spine
		{
			OFFSET 0.000000 6.876099 0.125700
			CHANNELS 3 Zrotation Yrotation Xrotation
			JOINT Spine1
			{
				OFFSET 0.000000 8.022060 0.146608
				CHANNELS 3 Zrotation Yrotation Xrotation
				JOINT Spine2
				{
					OFFSET 0.000000 9.168068 0.167552
					CHANNELS 3 Zrotation Yrotation Xrotation
					JOINT Neck_virtual
					{
						OFFSET 0.000000 0.000000 0.000000
						CHANNELS 3 Zrotation Yrotation Xrotation
						JOINT Neck
						{
							OFFSET 0.000000 10.314075 0.188496
							CHANNELS 3 Zrotation Yrotation Xrotation
							JOINT Head
							{
								OFFSET 0.000000 7.643700 -2.377400
								CHANNELS 3 Zrotation Yrotation Xrotation
								End Site
								{
									OFFSET 0.000000 0.000000 0.000000
								}
							}
						}
					}
					JOINT LeftShoulder_virtual
					{
						OFFSET 0.000000 0.000000 0.000000
						CHANNELS 3 Zrotation Yrotation Xrotation
						JOINT LeftShoulder
						{
							OFFSET 4.392200 8.824978 0.174984
							CHANNELS 3 Zrotation Yrotation Xrotation
							JOINT LeftArm
							{
								OFFSET 8.771219 -2.981674 -0.026999
								CHANNELS 3 Zrotation Yrotation Xrotation
								JOINT LeftForeArm
								{
									OFFSET 8.512804 0.000000 -0.000000
									CHANNELS 3 Zrotation Yrotation Xrotation
									JOINT LeftHand
									{
										OFFSET 18.484802 0.000000 -0.000000
										CHANNELS 3 Zrotation Yrotation Xrotation
										End Site
										{
											OFFSET 0.000000 0.000000 0.000000
										}
									}
								}
							}
						}
					}
					JOINT RightShoulder_virtual
					{
						OFFSET 0.000000 0.000000 0.000000
						CHANNELS 3 Zrotation Yrotation Xrotation
						JOINT RightShoulder
						{
							OFFSET -4.392200 8.824993 0.141379
							CHANNELS 3 Zrotation Yrotation Xrotation
							JOINT RightArm
							{
								OFFSET -8.771282 -2.981682 -0.094208
								CHANNELS 3 Zrotation Yrotation Xrotation
								JOINT RightForeArm
								{
									OFFSET -8.494598 0.000000 0.000000
									CHANNELS 3 Zrotation Yrotation Xrotation
									JOINT RightHand
									{
										OFFSET -18.483803 0.000000 0.000001
										CHANNELS 3 Zrotation Yrotation Xrotation
										End Site
										{
											OFFSET 0.000000 0.000000 0.000000
										}
									}
								}
							}
						}
					}
				}
			}
		}
	}
}
MOTION
Frames: 4
Frame Time: 0.033333
-11.845913 35.207417 3.666900 177.910773 57.596444 177.967190 -3.231607 -2.699663 11.942040 -9.254701 6.806517 -33.067610 14.106883 -0.004432 20.710517 -6.236624 4.058034 2.032074 0.000000 0.000000 0.000000 0.008997 -1.777621 11.792013 -3.111383 -4.351061 -43.139048 -6.810274 -0.274664 29.718399 6.381537 2.850707 18.920590 0.000000 0.000000 0.000000 -1.993949 0.172101 3.065698 -1.651255 3.342248 -12.393352 2.719795 -2.474831 4.260090 0.053497 0.021447 -0.047037 3.009759 -0.783054 5.240685 6.421850 -1.655756 18.284772 0.000000 0.000000 0.000000 4.262879 0.154769 1.904463 -13.291378 -10.368153 -0.551761 -50.187844 20.968488 4.591990 -2.669519 -26.300863 2.665029 0.000000 0.000000 0.000000 0.105809 1.179423 0.736158 16.476604 5.038315 -5.207989 39.819924 -14.226336 -48.074819 -165.526137 73.906909 -164.629621 0.000000 0.000000 0.000000 
-11.526311 35.225742 4.040292 177.538856 60.132767 177.495306 -3.359049 -2.458361 12.625618 -8.153360 7.353780 -33.085792 14.259874 0.113109 21.397033 -5.924010 3.834525 1.461048 0.000000 0.000000 0.000000 -0.410043 -1.364556 12.034897 -3.404673 -5.162422 -41.766716 -6.416056 0.063816 29.067222 6.446100 2.739755 18.082332 0.000000 0.000000 0.000000 -2.218106 0.326838 2.911033 -1.586883 3.074495 -12.604243 2.710023 -2.512481 4.475356 0.127836 0.075090 -0.054501 3.119590 -0.651271 5.525438 6.360846 -1.185722 19.631663 0.000000 0.000000 0.000000 4.381530 0.122699 1.961109 -13.198023 -9.877383 -0.526424 -49.590288 19.911583 2.784538 -3.097460 -26.177378 2.499513 0.000000 0.000000 0.000000 0.396623 1.116579 0.880235 16.890018 4.586473 -5.034398 43.041824 -18.228549 -49.125104 -170.064621 68.606095 -169.580620 0.000000 0.000000 0.000000 
-11.176933 35.233948 4.428203 177.077736 62.607577 177.044896 -3.419179 -2.167107 13.116295 -7.011611 7.946342 -32.946401 14.349572 0.168959 22.147138 -5.579314 3.581642 0.910181 0.000000 0.000000 0.000000 -0.681584 -1.037745 11.826684 -3.783505 -5.733241 -40.148631 -6.037004 0.528133 28.399034 6.572506 2.514100 17.777104 0.000000 0.000000 0.000000 -2.442777 0.355833 2.546977 -1.524802 2.797714 -12.987282 2.760174 -2.415088 4.738394 0.147233 0.296226 -0.045219 3.154700 -1.036895 5.789983 6.020866 -0.906204 21.210480 0.000000 0.000000 0.000000 4.441565 -0.088063 2.093670 -13.197573 -9.208839 -0.614012 -49.077873 19.311482 0.712988 -3.622015 -26.192838 2.500181 0.000000 0.000000 0.000000 0.460458 0.926321 1.053757 17.398771 4.136996 -4.860098 46.329504 -22.051549 -50.428786 -172.204232 64.764550 -172.016238 0.000000 0.000000 0.000000 
-10.762754 35.229515 4.846556 176.370839 64.942777 176.308069 -3.423739 -1.863646 13.180137 -5.788238 8.650044 -32.028823 14.318725 0.209781 22.798188 -5.239648 3.297468 0.272830 0.000000 0.000000 0.000000 -0.930954 -0.603724 11.779597 -4.355088 -6.151842 -38.164420 -5.642579 0.812649 26.935578 6.815427 2.269376 17.314316 0.000000 0.000000 0.000000 -2.868037 0.887512 2.229352 -1.554856 2.784106 -13.452363 3.044425 -2.897676 4.889252 0.053032 0.130968 -0.032044 3.131022 -1.237220 5.967821 5.335714 -0.931842 22.790258 0.000000 0.000000 0.000000 4.353966 -0.235676 2.151732 -13.354964 -8.353820 -0.645757 -48.539986 18.946106 -0.997628 -4.128001 -26.514719 2.495076 0.000000 0.000000 0.000000 0.142605 0.710945 1.341750 17.981731 3.732956 -4.734125 49.743991 -25.308605 -51.898875 -173.579818 62.133090 -173.626728 0.000000 0.000000 0.000000 
